<?xml version="1.0" encoding="UTF-8" standalone="no"?>
<!DOCTYPE svg PUBLIC "-//W3C//DTD SVG 1.1//EN" "http://www.w3.org/Graphics/SVG/1.1/DTD/svg11.dtd">
<svg xmlns="http://www.w3.org/2000/svg" xmlns:xlink="http://www.w3.org/1999/xlink" version="1.1" width="193.848pt" height="59.013pt" viewBox="0 0 193.848 59.013">
<clipPath id="cp0">
<path transform="matrix(.09045,0,0,-.09045,3.3360062,34.089006)" d="M 0 0 L 0 340.16188 L 2069.318 340.16188 L 2069.318 0 Z M 2069.318 340.16188 "/>
</clipPath>
<g clip-path="url(#cp0)">
<path transform="matrix(.09045,0,0,-.09045,3.3360062,34.089006)" stroke-width="70.86703" stroke-linecap="butt" stroke-miterlimit="10" stroke-linejoin="miter" fill="none" stroke="#000000" d="M 28.3468 -56.69362 L 425.20213 396.85533 "/>
<path transform="matrix(.09045,0,0,-.09045,3.3360062,34.089006)" stroke-width="70.86703" stroke-linecap="butt" stroke-miterlimit="10" stroke-linejoin="miter" fill="none" stroke="#000000" d="M 28.3468 396.85533 L 425.20213 -56.69362 "/>
<path transform="matrix(.09045,0,0,-.09045,3.3360062,34.089006)" stroke-width="70.86703" stroke-linecap="butt" stroke-miterlimit="10" stroke-linejoin="miter" fill="none" stroke="#000000" d="M 467.72257 0 L 467.72257 340.1617 "/>
<path transform="matrix(.09045,0,0,-.09045,3.3360062,34.089006)" stroke-width="70.86703" stroke-linecap="butt" stroke-miterlimit="10" stroke-linejoin="miter" fill="none" stroke="#000000" d="M 552.763 0 L 552.763 276.38139 C 552.763 292.0371 565.4541 304.7282 581.1098 304.7282 L 623.63009 304.7282 C 639.28579 304.7282 655.80459 292.60624 660.52639 277.65263 L 728.4677 62.50906 C 733.1896 47.55547 749.7084 35.43349 765.3641 35.43349 C 781.0198 35.43349 797.5386 47.55547 802.26046 62.50906 L 870.2018 277.65263 C 874.9236 292.60624 891.44247 304.7282 907.09817 304.7282 L 949.61837 304.7282 C 965.27407 304.7282 977.96517 292.0371 977.96517 276.38139 L 977.96517 0 "/>
<path transform="matrix(.09045,0,0,-.09045,3.3360062,34.089006)" stroke-width="70.86703" stroke-linecap="butt" stroke-miterlimit="10" stroke-linejoin="miter" fill="none" stroke="#000000" d="M 1339.3872 35.4335 L 1112.6127 35.4335 C 1081.3013 35.4335 1055.9191 60.81572 1055.9191 92.12714 L 1055.9191 113.38722 C 1055.9191 144.69864 1081.3013 170.08086 1112.6127 170.08086 L 1339.3872 170.08086 "/>
<path transform="matrix(.09045,0,0,-.09045,3.3360062,34.089006)" stroke-width="70.86703" stroke-linecap="butt" stroke-miterlimit="10" stroke-linejoin="miter" fill="none" stroke="#000000" d="M 1197.6532 170.08086 L 1112.6127 170.08086 C 1081.3013 170.08086 1055.9191 195.46306 1055.9191 226.77449 L 1055.9191 248.03456 C 1055.9191 279.34599 1081.3013 304.7282 1112.6127 304.7282 L 1390.4115 304.7282 "/>
<path transform="matrix(.09045,0,0,-.09045,3.3360062,34.089006)" stroke-width="70.86703" stroke-linecap="butt" stroke-miterlimit="10" stroke-linejoin="miter" fill="none" stroke="#000000" d="M 1388.9943 304.7282 L 1615.7688 304.7282 C 1647.0802 304.7282 1672.4624 279.34599 1672.4624 248.03456 L 1672.4624 219.68778 C 1672.4624 188.37636 1647.0802 162.99414 1615.7688 162.99414 L 1445.6879 162.99414 C 1414.3765 162.99414 1388.9943 137.61194 1388.9943 106.3005 L 1388.9943 0 "/>
<path transform="matrix(.09045,0,0,-.09045,3.3360062,34.089006)" stroke-width="70.86703" stroke-linecap="butt" stroke-miterlimit="10" stroke-linejoin="miter" fill="none" stroke="#000000" d="M 1516.5549 162.99414 L 1672.4624 -35.4335 "/>
<path transform="matrix(.09045,0,0,-.09045,3.3360062,34.089006)" stroke-width="70.86703" stroke-linecap="butt" stroke-miterlimit="10" stroke-linejoin="miter" fill="none" stroke="#000000" d="M 1686.6359 -35.4335 L 1838.6079 287.5069 C 1848.6093 308.75987 1864.8242 308.75987 1874.8256 287.5069 L 2026.7976 -35.4335 "/>
</g>
<symbol id="font_1_3">
<path d="M .57800009 .64900007 C .57800009 .68200007 .54800006 .68200007 .53400006 .68200007 L .044 .68200007 C .010000005 .68200007 0 .674 0 .638 L 0 .044000005 C 0 .010000001 .008000001 0 .044 0 L .049999998 0 C .08400001 0 .09400001 .008 .09400001 .044000005 L .09400001 .30800004 L .48200006 .30800004 C .49600006 .30800004 .526 .30800004 .526 .34100003 C .526 .374 .49600006 .374 .48200006 .374 L .09400001 .374 L .09400001 .61600008 L .53400006 .61600008 C .54800006 .61600008 .57800009 .61600008 .57800009 .64900007 Z "/>
</symbol>
<use xlink:href="#font_1_3" transform="matrix(-23.761795,0,0,-23.761795,18.314196,55.692)"/>
<symbol id="font_1_6">
<path d="M .82600006 .36200003 C .82600006 .55700007 .647 .7260001 .41300003 .7260001 C .178 .7260001 0 .55700007 0 .36200003 C 0 .165 .181 0 .41300003 0 C .64500007 0 .82600006 .165 .82600006 .36200003 M .73200008 .375 C .73200008 .202 .6 .066 .41300003 .066 C .22600001 .066 .094 .202 .094 .375 C .094 .54200008 .23000002 .6610001 .41300003 .6610001 C .596 .6610001 .73200008 .54100009 .73200008 .375 Z "/>
</symbol>
<symbol id="font_1_8">
<path d="M .58400008 .252 L .58400008 .6610001 C .58400008 .68200007 .58400008 .70500007 .544 .70500007 C .50400009 .70500007 .50400009 .68200007 .50400009 .6610001 L .50400009 .25500003 C .50400009 .13100001 .397 .066 .296 .066 C .2 .066 .09400001 .126 .09400001 .25500003 L .09400001 .6610001 C .09400001 .69500008 .08600001 .70500007 .049999998 .70500007 L .044 .70500007 C .010000005 .70500007 0 .6970001 0 .6610001 L 0 .252 C 0 .10700001 .136 0 .29500003 0 C .45400007 0 .58400008 .10900001 .58400008 .252 Z "/>
</symbol>
<symbol id="font_1_5">
<path d="M .582 .044000005 L .582 .64000007 C .582 .66 .582 .684 .54300007 .684 C .504 .684 .504 .66 .504 .64000007 L .504 .064 L .151 .647 C .12900001 .684 .101 .684 .08100001 .684 L .044000009 .684 C .009999998 .684 0 .67600008 0 .64000007 L 0 .044000005 C 0 .024 0 0 .039000013 0 C .078 0 .078 .024 .078 .044000005 L .078 .62 L .431 .037 C .453 0 .481 0 .50100007 0 L .53800007 0 C .572 0 .582 .008 .582 .044000005 Z "/>
</symbol>
<symbol id="font_1_2">
<path d="M .7060001 .337 C .7060001 .526 .536 .684 .326 .684 L .044 .684 C .009999998 .684 0 .67600008 0 .64000007 L 0 .044000005 C 0 .010000001 .008000001 0 .044 0 L .32700003 0 C .53 0 .7060001 .147 .7060001 .337 M .6140001 .33600004 C .6140001 .171 .48500005 .066 .305 .066 L .09200001 .066 L .09200001 .61800006 L .30400003 .61800006 C .48500005 .61800006 .6140001 .509 .6140001 .33600004 Z "/>
</symbol>
<symbol id="font_1_1">
<path d="M .711 .022000002 C .711 .027 .707 .037 .70500007 .041 L .42100004 .65500006 C .40600003 .68600007 .39500005 .694 .35500003 .694 C .33200003 .694 .307 .694 .29000003 .657 L .006000001 .041 C .0029999987 .035 0 .029000001 0 .022000002 C 0 0 .022999999 0 .031 0 C .045000007 0 .07100001 .001 .088 .038000004 L .156 .186 L .536 .186 L .58800008 .074 C .619 .006 .62200006 0 .67100009 0 C .69000008 0 .711 0 .711 .022000002 M .50500008 .252 L .186 .252 L .34600003 .60200008 L .50500008 .252 Z "/>
</symbol>
<symbol id="font_1_7">
<path d="M .805 .648 C .805 .68100008 .77500006 .68100008 .76100006 .68100008 L .044 .68100008 C .030000002 .68100008 0 .68100008 0 .648 C 0 .615 .030000002 .615 .044 .615 L .356 .615 L .356 .044000005 C .356 .010000001 .36400003 0 .40000005 0 L .40600003 0 C .44 0 .45000006 .008 .45000006 .044000005 L .45000006 .615 L .76100006 .615 C .77500006 .615 .805 .615 .805 .648 Z "/>
</symbol>
<symbol id="font_1_4">
<path d="M .09400001 .044000005 L .09400001 .64000007 C .09400001 .674 .08600001 .684 .049999998 .684 L .044 .684 C .010000005 .684 0 .67600008 0 .64000007 L 0 .044000005 C 0 .010000001 .008000001 0 .044 0 L .049999998 0 C .08400001 0 .09400001 .008 .09400001 .044000005 Z "/>
</symbol>
<use xlink:href="#font_1_6" transform="matrix(23.761795,0,0,-23.761795,22.61508,56.190999)"/>
<use xlink:href="#font_1_8" transform="matrix(23.761795,0,0,-23.761795,46.566968,56.190999)"/>
<use xlink:href="#font_1_5" transform="matrix(23.761795,0,0,-23.761795,65.86155,55.692)"/>
<use xlink:href="#font_1_2" transform="matrix(23.761795,0,0,-23.761795,85.13237,55.692)"/>
<use xlink:href="#font_1_1" transform="matrix(23.761795,0,0,-23.761795,103.85667,55.692)"/>
<use xlink:href="#font_1_7" transform="matrix(23.761795,0,0,-23.761795,120.48993,55.692)"/>
<use xlink:href="#font_1_4" transform="matrix(23.761795,0,0,-23.761795,143.37253,55.692)"/>
<use xlink:href="#font_1_6" transform="matrix(23.761795,0,0,-23.761795,149.95455,56.190999)"/>
<use xlink:href="#font_1_5" transform="matrix(23.761795,0,0,-23.761795,173.97772,55.692)"/>
</svg>
