<?xml version="1.0" encoding="UTF-8"?>
<svg xmlns="http://www.w3.org/2000/svg" xmlns:xlink="http://www.w3.org/1999/xlink" width="193.817pt" height="37.41pt" viewBox="0 0 193.817 37.41" version="1.1">
<defs>
<clipPath id="clip1">
  <path d="M 3.320312 3.320312 L 133 3.320312 L 133 34.089844 L 3.320312 34.089844 Z M 3.320312 3.320312 "/>
</clipPath>
<clipPath id="clip2">
  <path d="M 42 3.320312 L 49 3.320312 L 49 34.089844 L 42 34.089844 Z M 42 3.320312 "/>
</clipPath>
<clipPath id="clip3">
  <path d="M 3.320312 3.320312 L 183 3.320312 L 183 34.089844 L 3.320312 34.089844 Z M 3.320312 3.320312 "/>
</clipPath>
<clipPath id="clip4">
  <path d="M 8 3.320312 L 190.492188 3.320312 L 190.492188 34.089844 L 8 34.089844 Z M 8 3.320312 "/>
</clipPath>
<clipPath id="clip5">
  <path d="M 38 3.320312 L 190.492188 3.320312 L 190.492188 34.089844 L 38 34.089844 Z M 38 3.320312 "/>
</clipPath>
<clipPath id="clip6">
  <path d="M 49 3.320312 L 190.492188 3.320312 L 190.492188 34.089844 L 49 34.089844 Z M 49 3.320312 "/>
</clipPath>
<clipPath id="clip7">
  <path d="M 65 3.320312 L 190.492188 3.320312 L 190.492188 34.089844 L 65 34.089844 Z M 65 3.320312 "/>
</clipPath>
</defs>
<g id="surface1">
<g clip-path="url(#clip1)" clip-rule="nonzero">
<path style="fill:none;stroke-width:70.86703;stroke-linecap:butt;stroke-linejoin:miter;stroke:rgb(100%,100%,100%);stroke-opacity:1;stroke-miterlimit:10;" d="M 28.366155 -56.713654 L 425.210061 396.834577 " transform="matrix(0.09045,0,0,-0.09045,3.321,34.089)"/>
<path style="fill:none;stroke-width:70.86703;stroke-linecap:butt;stroke-linejoin:miter;stroke:rgb(100%,100%,100%);stroke-opacity:1;stroke-miterlimit:10;" d="M 28.366155 396.834577 L 425.210061 -56.713654 " transform="matrix(0.09045,0,0,-0.09045,3.321,34.089)"/>
</g>
<g clip-path="url(#clip2)" clip-rule="nonzero">
<path style="fill:none;stroke-width:70.86703;stroke-linecap:butt;stroke-linejoin:miter;stroke:rgb(100%,100%,100%);stroke-opacity:1;stroke-miterlimit:10;" d="M 467.705915 -0.00932836 L 467.705915 340.173438 " transform="matrix(0.09045,0,0,-0.09045,3.321,34.089)"/>
</g>
<g clip-path="url(#clip3)" clip-rule="nonzero">
<path style="fill:none;stroke-width:70.86703;stroke-linecap:butt;stroke-linejoin:miter;stroke:rgb(100%,100%,100%);stroke-opacity:1;stroke-miterlimit:10;" d="M 552.783997 -0.00932836 L 552.783997 276.38647 C 552.783997 292.020108 565.437742 304.71704 581.114566 304.71704 L 623.61042 304.71704 C 639.287244 304.71704 655.784619 292.624724 660.491985 277.682076 L 728.468076 62.482034 C 733.175442 47.539386 749.716003 35.44707 765.349641 35.44707 C 781.026465 35.44707 797.523839 47.539386 802.231205 62.482034 L 870.207297 277.682076 C 874.914663 292.624724 891.455224 304.71704 907.088861 304.71704 L 949.627902 304.71704 C 965.26154 304.71704 977.958472 292.020108 977.958472 276.38647 L 977.958472 -0.00932836 " transform="matrix(0.09045,0,0,-0.09045,3.321,34.089)"/>
</g>
<g clip-path="url(#clip4)" clip-rule="nonzero">
<path style="fill:none;stroke-width:70.86703;stroke-linecap:butt;stroke-linejoin:miter;stroke:rgb(100%,100%,100%);stroke-opacity:1;stroke-miterlimit:10;" d="M 1339.389165 35.44707 L 1112.61505 35.44707 C 1081.304588 35.44707 1055.910724 60.797747 1055.910724 92.108209 L 1055.910724 113.399323 C 1055.910724 144.709784 1081.304588 170.060462 1112.61505 170.060462 L 1339.389165 170.060462 " transform="matrix(0.09045,0,0,-0.09045,3.321,34.089)"/>
<path style="fill:none;stroke-width:70.86703;stroke-linecap:butt;stroke-linejoin:miter;stroke:rgb(100%,100%,100%);stroke-opacity:1;stroke-miterlimit:10;" d="M 1197.649945 170.060462 L 1112.61505 170.060462 C 1081.304588 170.060462 1055.910724 195.454326 1055.910724 226.764787 L 1055.910724 248.055901 C 1055.910724 279.366363 1081.304588 304.71704 1112.61505 304.71704 L 1390.392828 304.71704 " transform="matrix(0.09045,0,0,-0.09045,3.321,34.089)"/>
</g>
<g clip-path="url(#clip5)" clip-rule="nonzero">
<path style="fill:none;stroke-width:70.86703;stroke-linecap:butt;stroke-linejoin:miter;stroke:rgb(100%,100%,100%);stroke-opacity:1;stroke-miterlimit:10;" d="M 1389.010849 304.71704 L 1615.784964 304.71704 C 1647.095426 304.71704 1672.446103 279.366363 1672.446103 248.055901 L 1672.446103 219.682145 C 1672.446103 188.371683 1647.095426 162.977819 1615.784964 162.977819 L 1445.671987 162.977819 C 1414.361526 162.977819 1389.010849 137.627142 1389.010849 106.31668 L 1389.010849 -0.00932836 " transform="matrix(0.09045,0,0,-0.09045,3.321,34.089)"/>
</g>
<g clip-path="url(#clip6)" clip-rule="nonzero">
<path style="fill:none;stroke-width:70.86703;stroke-linecap:butt;stroke-linejoin:miter;stroke:rgb(100%,100%,100%);stroke-opacity:1;stroke-miterlimit:10;" d="M 1516.541598 162.977819 L 1672.446103 -35.42254 " transform="matrix(0.09045,0,0,-0.09045,3.321,34.089)"/>
</g>
<g clip-path="url(#clip7)" clip-rule="nonzero">
<path style="fill:none;stroke-width:70.86703;stroke-linecap:butt;stroke-linejoin:miter;stroke:rgb(100%,100%,100%);stroke-opacity:1;stroke-miterlimit:10;" d="M 1686.654574 -35.42254 L 1838.629077 287.528676 C 1848.605238 308.776603 1864.843491 308.776603 1874.819652 287.528676 L 2026.794154 -35.42254 " transform="matrix(0.09045,0,0,-0.09045,3.321,34.089)"/>
</g>
</g>
</svg>
